Coordinates
version=1
nRows=7
nColumns=40
inDegrees=yes

Units are S.I. units (second, meters, Newtons, ...)
If the header above contains a line with 'inDegrees', this indicates whether rotational values are in degrees (yes) or radians (no).

endheader
time	pelvis_tilt	pelvis_list	pelvis_rotation	pelvis_tx	pelvis_ty	pelvis_tz	hip_flexion_r	hip_adduction_r	hip_rotation_r	knee_angle_r	knee_angle_r_beta	ankle_angle_r	subtalar_angle_r	mtp_angle_r	hip_flexion_l	hip_adduction_l	hip_rotation_l	knee_angle_l	knee_angle_l_beta	ankle_angle_l	subtalar_angle_l	mtp_angle_l	lumbar_extension	lumbar_bending	lumbar_rotation	arm_flex_r	arm_add_r	arm_rot_r	elbow_flex_r	pro_sup_r	wrist_flex_r	wrist_dev_r	arm_flex_l	arm_add_l	arm_rot_l	elbow_flex_l	pro_sup_l	wrist_flex_l	wrist_dev_l
     11.70000000	     -5.96270672	      6.67579035	     -8.20198519	      0.05102673	      1.31301921	      0.01152638	     42.45434197	     -5.24773170	      7.96805238	     68.71728413	      1.19934286	    -15.98657397	    -33.35246842	      0.00000000	     74.57147024	     -4.72760340	     -1.57152321	     83.63054988	      1.45962845	    -12.11354367	    -22.09713925	      0.00000000	    -37.44628047	     -7.47628003	     -2.70496024	     59.16753230	     10.48588610	    -30.71198022	     51.45188501	     84.90389428	      0.00000000	      0.00000000	     68.37877134	      3.76476751	    -25.79558364	     49.67513217	     85.01358752	      0.00000000	      0.00000000
     11.71700000	     -5.87954856	      6.83145987	     -8.92114183	      0.05087490	      1.31314670	      0.01225712	     43.76199471	     -4.69215484	      9.35686687	     72.56467791	      1.26649255	    -14.44024158	    -33.23570394	      0.00000000	     72.71291967	     -5.03034456	     -2.14675155	     80.25068827	      1.40063874	    -12.55621169	    -22.79554695	      0.00000000	    -37.38838374	     -7.92556002	     -2.38081617	     59.27992462	     10.72541855	    -30.91314343	     51.31738004	     85.07618606	      0.00000000	      0.00000000	     68.21692119	      3.62942851	    -26.00727434	     49.83190565	     85.26814443	      0.00000000	      0.00000000
     11.73300000	     -5.80558781	      6.46748842	     -9.39889702	      0.05091392	      1.31322536	      0.01280720	     44.96788463	     -3.81014471	     10.16998877	     76.36115586	      1.33275359	    -13.39935067	    -33.40871314	      0.00000000	     70.73478623	     -5.24117774	     -2.04020395	     76.89115206	      1.34200377	    -12.94699212	    -23.07336389	      0.00000000	    -37.36535828	     -7.74885616	     -1.92183410	     59.32620906	     10.94699367	    -30.94169519	     51.23285658	     85.14578031	      0.00000000	      0.00000000	     67.99429596	      3.48538060	    -26.10949317	     49.96054033	     85.34878641	      0.00000000	      0.00000000
     11.75000000	     -5.74535720	      6.62478384	    -10.24625798	      0.05076120	      1.31326039	      0.01371121	     46.49491980	     -3.08555351	     11.51638695	     80.15186859	      1.39891401	    -12.33273522	    -33.14355826	      0.00000000	     68.49228811	     -5.63102609	     -2.82112183	     73.30742870	      1.27945600	    -13.45966523	    -23.86466322	      0.00000000	    -37.26537494	     -8.26375911	     -1.46831800	     59.38638563	     11.24276446	    -31.18627173	     51.15426319	     85.25106360	      0.00000000	      0.00000000	     67.85394744	      3.26664865	    -26.07672428	     49.99722238	     85.52203156	      0.00000000	      0.00000000
     11.76700000	     -5.74386787	      6.37061170	    -10.86378602	      0.05072390	      1.31324900	      0.01437643	     47.99987325	     -2.13612886	     12.30608318	     83.83748670	      1.46324018	    -11.51607793	    -33.10546413	      0.00000000	     66.15668835	     -5.92563646	     -3.06014171	     69.64372738	      1.21551235	    -14.09304042	    -24.24841562	      0.00000000	    -37.17010867	     -8.26952026	     -0.91943431	     59.41056110	     11.40624453	    -31.21250677	     51.08030340	     85.32492825	      0.00000000	      0.00000000	     67.65438800	      3.05029892	    -26.02852209	     50.07197640	     85.56963693	      0.00000000	      0.00000000
     11.78300000	     -5.76816449	      6.16192805	    -11.51251921	      0.05066405	      1.31314430	      0.01503888	     49.65783006	     -1.14104312	     13.11656191	     87.48651539	      1.52692774	    -10.87900041	    -32.93932510	      0.00000000	     63.65597760	     -6.22616719	     -3.47412703	     65.84704128	      1.14924767	    -14.78710125	    -24.71377343	      0.00000000	    -37.05278904	     -8.33565711	     -0.34190121	     59.41830842	     11.55835948	    -31.26460016	     51.05249710	     85.37378476	      0.00000000	      0.00000000	     67.47703275	      2.81466960	    -25.86773329	     50.10813110	     85.58936434	      0.00000000	      0.00000000
     11.80000000	     -5.81508034	      5.95318243	    -12.16703793	      0.05057949	      1.31303275	      0.01573427	     51.43498580	     -0.08781347	     13.82730827	     90.92986803	      1.58702559	    -10.55916391	    -32.74967728	      0.00000000	     61.10613656	     -6.56502051	     -3.96858031	     62.07878595	      1.08347921	    -15.60124368	    -24.95818237	      0.00000000	    -36.91742806	     -8.43102643	      0.27914098	     59.38963915	     11.63447635	    -31.24292683	     51.00465732	     85.15792872	      0.00000000	      0.00000000	     67.32176685	      2.60272820	    -25.64831210	     50.07648606	     85.31877721	      0.00000000	      0.00000000
